<svg xmlns="http://www.w3.org/2000/svg" viewBox="0 0 198.19 53.44"><defs><style>.cls-1{fill:#0066a6;}.cls-2,.cls-3,.cls-4{fill:#fff;}.cls-2{fill-rule:evenodd;}.cls-4{font-size:33.04px;font-family:Dosis-Regular, Dosis;}.cls-5{letter-spacing:0em;}.cls-6{letter-spacing:-0.02em;}.cls-7{letter-spacing:0em;}.cls-8{letter-spacing:0em;}</style></defs><title>rj-inloco</title><g id="Camada_2" data-name="Camada 2"><g id="Camada_1-2" data-name="Camada 1"><rect class="cls-1" width="198.19" height="53.44"/><path class="cls-2" d="M60.08,32.18a8.24,8.24,0,0,1-.59,3.11,6.29,6.29,0,0,1-1.76,2.43,8.72,8.72,0,0,1-3,1.65,13.63,13.63,0,0,1-4.3.58c-1.16,0-2.25-.05-3.28-.14a22.36,22.36,0,0,1-2.7-.35v-5.1h.61c.54.2,1.1.39,1.69.57a8.15,8.15,0,0,0,2.24.26,6.33,6.33,0,0,0,2.72-.47,2.89,2.89,0,0,0,1.37-1.32,4.91,4.91,0,0,0,.44-1.81c0-.66.05-1.51.05-2.53v-10H47.84V14.42H60.08Z"/><path class="cls-2" d="M31,22.15a3.32,3.32,0,0,0-.4-1.68,2.75,2.75,0,0,0-1.38-1.1A5.2,5.2,0,0,0,27.58,19c-.6,0-1.3-.07-2.11-.07H23.05v7h2.06a20,20,0,0,0,2.68-.15,4,4,0,0,0,1.82-.72,3.48,3.48,0,0,0,1-1.19A4,4,0,0,0,31,22.15m10.46,18H33.22l-7.08-9.53H23.05v9.53H16.38v-26H27.62a26.41,26.41,0,0,1,4,.26,8.71,8.71,0,0,1,3.11,1.14A6.64,6.64,0,0,1,37,17.86a6.38,6.38,0,0,1,.87,3.47A7.69,7.69,0,0,1,36.54,26a10,10,0,0,1-3.81,3Z"/><rect class="cls-3" x="77.04" y="7.69" width="2.34" height="39"/><text class="cls-4" transform="matrix(1.04, 0, -0.16, 0.99, 90.63, 37.23)"><tspan class="cls-5">I</tspan><tspan x="7.04" y="0">n </tspan><tspan class="cls-6" x="30.04" y="0">L</tspan><tspan class="cls-7" x="44.84" y="0">o</tspan><tspan class="cls-8" x="60.3" y="0">c</tspan><tspan x="73.72" y="0">o</tspan></text></g></g></svg>